<svg id="svg" version="1.1" xmlns="http://www.w3.org/2000/svg" xmlns:xlink="http://www.w3.org/1999/xlink" width="400" height="600" viewBox="0, 0, 400,600"><g id="svgg"><path id="path0" d="M180.078 33.097 C 174.699 33.968,171.728 37.159,172.627 41.099 C 172.988 42.682,173.475 43.541,176.278 47.548 C 183.390 57.716,181.101 74.213,169.531 96.172 C 160.114 114.046,149.220 136.379,144.607 147.266 C 142.196 152.959,139.453 163.887,139.453 167.806 C 139.453 169.885,140.250 169.829,144.234 167.472 C 156.508 160.210,176.936 153.633,192.974 151.780 C 219.862 148.675,242.261 152.867,269.654 166.132 C 279.240 170.774,278.970 170.952,277.497 160.938 C 271.512 120.247,238.743 66.063,206.543 43.613 C 199.473 38.684,189.497 34.058,184.544 33.412 C 183.484 33.274,182.266 33.111,181.836 33.050 C 181.406 32.989,180.615 33.010,180.078 33.097 M167.773 190.788 C 162.223 193.266,161.017 203.112,165.691 207.787 C 170.973 213.069,178.133 208.487,178.121 199.833 C 178.112 193.034,172.916 188.493,167.773 190.788 M243.164 190.849 C 235.988 194.581,236.938 207.721,244.532 209.766 C 250.463 211.363,255.335 203.831,253.176 196.403 C 251.799 191.662,246.864 188.924,243.164 190.849 M191.406 224.906 C 188.040 226.711,187.457 231.298,190.239 234.081 C 194.345 238.187,200.772 233.477,198.649 227.918 C 197.465 224.816,194.146 223.437,191.406 224.906 M220.716 224.882 C 215.844 227.415,217.564 235.151,223.016 235.226 C 227.013 235.282,229.532 230.787,227.594 227.054 C 226.305 224.571,223.200 223.590,220.716 224.882 M115.740 230.624 C 99.460 274.609,118.380 312.447,171.890 342.914 C 177.850 346.308,176.872 346.347,182.139 342.504 C 190.827 336.164,197.507 331.368,199.940 329.722 C 201.304 328.799,202.271 327.902,202.089 327.727 C 201.907 327.552,198.682 325.793,194.922 323.817 C 135.222 292.442,112.601 265.595,116.943 231.273 C 117.281 228.599,117.516 226.370,117.464 226.318 C 117.412 226.266,116.636 228.203,115.740 230.624 M299.624 227.344 C 299.620 227.451,299.875 229.473,300.191 231.836 C 304.483 263.904,284.341 290.114,232.156 320.367 C 181.578 349.688,160.627 365.942,150.422 383.778 C 136.892 407.427,144.102 432.411,170.313 452.699 C 176.052 457.142,185.954 463.633,190.638 466.022 L 192.206 466.822 193.857 465.705 C 194.765 465.091,197.071 463.652,198.982 462.507 L 202.456 460.426 200.935 459.658 C 187.760 453.005,175.083 441.871,169.341 431.910 L 168.257 430.031 177.586 430.081 C 182.716 430.109,200.579 430.120,217.280 430.105 L 247.645 430.078 248.820 427.751 C 250.069 425.276,251.953 419.999,251.953 418.974 C 251.953 418.419,247.760 418.359,208.398 418.359 L 164.844 418.359 164.844 414.827 C 164.844 409.969,165.752 405.967,167.892 401.405 L 169.706 397.536 209.066 397.800 L 248.427 398.064 247.214 396.004 C 245.821 393.638,244.456 391.827,241.461 388.367 L 239.337 385.914 209.024 386.150 L 178.711 386.386 180.469 384.769 C 184.549 381.015,192.437 374.994,198.633 370.903 C 205.432 366.414,210.304 363.515,231.445 351.375 C 293.562 315.707,314.081 285.766,305.071 243.945 C 304.021 239.071,299.690 225.869,299.624 227.344 M187.079 264.423 C 182.004 269.498,194.065 278.268,206.836 278.789 C 219.831 279.319,234.335 270.761,230.272 264.961 C 228.608 262.584,226.887 262.906,221.407 266.622 C 212.666 272.548,201.840 272.027,193.407 265.276 C 190.368 262.843,188.862 262.640,187.079 264.423 M213.999 472.947 C 211.494 474.393,209.518 475.696,209.608 475.842 C 209.699 475.989,210.958 476.765,212.406 477.568 C 216.756 479.979,222.504 483.885,226.703 487.283 C 234.762 493.806,235.725 494.297,237.319 492.703 C 240.396 489.626,232.980 479.660,222.296 472.513 C 218.334 469.864,219.440 469.806,213.999 472.947 " stroke="none" fill="#0d797f" fill-rule="evenodd"></path><path id="path1" d="M0.000 300.000 L 0.000 600.000 200.000 600.000 L 400.000 600.000 400.000 300.000 L 400.000 0.000 200.000 0.000 L 0.000 0.000 0.000 300.000 M187.423 34.047 C 208.080 39.633,232.772 63.539,253.527 98.047 C 261.466 111.246,271.691 134.572,274.203 145.215 C 274.761 147.578,275.000 147.716,275.721 146.089 C 282.213 131.422,303.524 126.985,322.367 136.376 C 335.250 142.797,337.290 146.256,332.752 153.986 C 329.971 158.724,329.935 158.815,328.127 165.860 C 323.372 184.390,312.075 193.872,295.432 193.303 C 292.524 193.203,291.177 193.285,291.383 193.549 C 293.207 195.879,295.715 210.272,295.696 218.303 C 295.646 240.408,272.207 247.598,249.625 232.435 C 246.402 230.271,242.987 228.516,242.002 228.516 C 241.637 228.516,241.615 229.039,241.907 230.734 C 244.626 246.515,228.505 255.930,202.079 253.997 C 182.459 252.561,171.832 243.087,174.922 229.785 C 175.134 228.872,175.243 228.125,175.165 228.125 C 174.408 228.125,170.128 230.466,167.077 232.549 C 149.889 244.284,132.081 243.103,124.156 229.702 C 120.195 223.004,120.902 204.649,125.541 193.750 C 125.756 193.246,125.230 193.184,121.782 193.304 C 105.275 193.881,93.516 183.968,88.715 165.430 C 86.865 158.286,86.817 158.160,84.097 153.384 C 79.976 146.145,81.894 142.706,93.359 136.775 C 112.990 126.621,134.192 130.947,142.251 146.750 L 143.681 149.556 144.568 147.336 C 147.691 139.523,155.722 122.754,163.870 107.031 C 173.464 88.522,173.719 87.996,175.601 82.813 C 181.511 66.534,181.882 55.457,176.758 48.242 C 171.726 41.158,171.253 39.126,173.924 36.084 C 176.768 32.844,180.753 32.243,187.423 34.047 M251.396 207.385 L 250.252 208.789 251.571 207.532 C 252.296 206.841,252.811 206.209,252.714 206.128 C 252.618 206.047,252.024 206.613,251.396 207.385 M117.119 229.529 C 111.768 264.804,136.575 294.309,197.499 325.129 C 203.163 327.994,203.138 327.482,197.797 331.250 C 195.249 333.047,189.615 337.122,185.278 340.304 L 177.391 346.090 172.387 343.241 C 118.474 312.544,99.614 275.396,115.514 231.220 C 117.591 225.450,117.765 225.267,117.119 229.529 M303.354 237.365 C 315.576 277.395,297.662 310.971,247.558 341.941 C 245.307 343.333,235.497 349.070,225.759 354.692 C 198.173 370.616,189.689 376.249,180.664 384.635 L 178.711 386.450 204.883 386.194 C 219.277 386.054,232.882 385.938,235.115 385.938 L 239.175 385.937 236.524 383.507 C 231.635 379.028,225.636 374.564,219.373 370.746 L 215.632 368.464 221.976 364.818 C 225.465 362.812,230.950 359.614,234.163 357.711 C 240.966 353.683,239.758 353.601,246.006 358.518 C 270.458 377.762,279.554 400.242,271.792 422.244 C 266.024 438.593,252.196 451.736,224.891 466.821 L 218.728 470.225 220.399 471.207 C 231.011 477.439,239.768 488.340,237.528 492.526 C 236.465 494.512,234.400 493.620,228.125 488.466 C 223.425 484.605,219.680 481.966,214.317 478.737 L 209.297 475.714 206.895 476.983 C 202.409 479.352,196.758 482.897,192.078 486.278 C 189.513 488.132,186.337 490.396,185.021 491.309 C 178.279 495.987,177.064 490.097,183.208 482.523 C 186.028 479.047,190.196 475.833,200.109 469.492 C 224.732 453.739,227.473 451.854,234.193 446.050 C 238.854 442.024,243.338 436.920,246.269 432.301 L 247.709 430.033 208.055 430.153 L 168.400 430.273 169.408 432.031 C 174.893 441.595,186.204 451.658,199.703 458.983 L 202.370 460.430 197.211 463.647 L 192.052 466.864 190.459 465.981 C 138.859 437.358,129.291 399.983,164.836 365.884 C 176.307 354.878,197.028 340.755,228.516 322.480 C 241.909 314.706,245.278 312.654,252.112 308.107 C 287.773 284.380,303.649 259.390,300.234 232.358 C 299.891 229.638,299.619 227.264,299.632 227.085 C 299.672 226.497,301.993 232.908,303.354 237.365 M192.422 264.458 C 202.684 272.385,213.260 272.798,222.852 265.646 C 226.549 262.890,228.433 262.646,230.061 264.716 C 233.147 268.639,225.756 275.613,215.820 278.153 C 205.584 280.770,192.182 277.059,186.911 270.147 C 183.623 265.837,188.154 261.160,192.422 264.458 M168.076 401.011 C 165.826 405.772,165.182 408.399,164.948 413.770 L 164.747 418.359 208.324 418.359 L 251.900 418.359 252.180 417.480 C 253.412 413.609,251.810 403.893,249.215 399.495 L 248.360 398.047 239.317 398.046 C 234.343 398.045,216.649 397.929,199.997 397.787 L 169.721 397.530 168.076 401.011 " stroke="none" fill="#fbfbfb" fill-rule="evenodd"></path><path id="path2" d="M113.194 131.537 C 114.113 131.619,115.519 131.618,116.319 131.534 C 117.119 131.450,116.367 131.382,114.648 131.384 C 112.930 131.385,112.275 131.454,113.194 131.537 M300.488 131.535 C 301.294 131.619,302.612 131.619,303.418 131.535 C 304.224 131.450,303.564 131.381,301.953 131.381 C 300.342 131.381,299.683 131.450,300.488 131.535 M108.691 131.910 C 109.067 132.008,109.683 132.008,110.059 131.910 C 110.435 131.812,110.127 131.731,109.375 131.731 C 108.623 131.731,108.315 131.812,108.691 131.910 M296.582 131.910 C 296.958 132.008,297.573 132.008,297.949 131.910 C 298.325 131.812,298.018 131.731,297.266 131.731 C 296.514 131.731,296.206 131.812,296.582 131.910 M102.148 133.203 C 101.656 133.415,101.584 133.539,101.953 133.539 C 102.275 133.539,102.891 133.388,103.320 133.203 C 103.813 132.992,103.885 132.867,103.516 132.867 C 103.193 132.867,102.578 133.018,102.148 133.203 M313.086 133.203 C 313.516 133.388,314.131 133.539,314.453 133.539 C 314.822 133.539,314.750 133.415,314.258 133.203 C 313.828 133.018,313.213 132.867,312.891 132.867 C 312.521 132.867,312.594 132.992,313.086 133.203 M127.376 133.741 C 127.776 134.103,130.859 135.542,130.859 135.367 C 130.859 135.145,127.911 133.594,127.490 133.594 C 127.338 133.594,127.287 133.660,127.376 133.741 M287.793 134.402 C 286.987 134.827,286.328 135.262,286.328 135.369 C 286.328 135.543,289.414 134.101,289.811 133.741 C 290.261 133.334,289.087 133.718,287.793 134.402 M93.652 136.552 C 92.138 137.373,92.309 137.657,93.848 136.874 C 95.320 136.126,95.581 135.931,95.085 135.953 C 94.888 135.962,94.243 136.231,93.652 136.552 M321.126 136.085 C 321.526 136.446,324.609 137.886,324.609 137.711 C 324.609 137.489,321.661 135.938,321.240 135.938 C 321.088 135.938,321.037 136.004,321.126 136.085 M281.599 138.961 C 279.007 141.406,276.089 145.154,275.519 146.770 C 275.385 147.150,276.149 146.143,277.217 144.531 C 278.284 142.920,280.441 140.415,282.009 138.965 C 283.578 137.515,284.755 136.328,284.625 136.328 C 284.496 136.328,283.134 137.513,281.599 138.961 M133.594 137.185 C 133.594 137.263,134.692 138.277,136.035 139.440 C 137.378 140.603,138.037 141.064,137.500 140.465 C 136.527 139.379,133.594 136.917,133.594 137.185 M90.918 138.114 C 89.458 138.906,89.547 139.236,91.016 138.477 C 91.660 138.143,92.188 137.787,92.188 137.685 C 92.188 137.434,92.146 137.448,90.918 138.114 M325.195 138.174 C 325.410 138.379,326.289 138.942,327.148 139.424 C 328.008 139.907,328.359 140.009,327.930 139.652 C 327.057 138.927,324.582 137.589,325.195 138.174 M86.491 141.239 L 84.961 142.635 86.621 141.369 C 88.138 140.213,88.508 139.844,88.151 139.844 C 88.079 139.844,87.332 140.472,86.491 141.239 M329.864 141.149 C 330.304 141.544,331.232 142.381,331.927 143.007 C 333.691 144.600,334.488 145.933,334.795 147.805 L 335.058 149.414 335.107 148.008 C 335.164 146.382,333.777 144.111,331.641 142.331 C 330.030 140.989,328.709 140.110,329.864 141.149 M139.436 143.262 C 140.162 144.175,140.826 144.922,140.912 144.922 C 141.188 144.922,139.514 142.724,138.803 142.153 C 138.426 141.850,138.711 142.349,139.436 143.262 M83.740 143.652 C 82.585 145.239,82.229 146.046,83.180 144.922 C 84.061 143.881,84.882 142.578,84.658 142.578 C 84.583 142.578,84.170 143.062,83.740 143.652 M82.037 148.665 C 82.041 149.077,82.222 149.678,82.440 150.000 C 82.729 150.428,82.766 150.270,82.574 149.414 C 82.253 147.978,82.029 147.666,82.037 148.665 M333.673 151.376 C 333.205 152.338,332.905 153.125,333.005 153.125 C 333.270 153.125,334.848 149.952,334.671 149.775 C 334.589 149.694,334.140 150.414,333.673 151.376 M330.645 156.677 C 330.302 157.341,330.090 157.954,330.175 158.039 C 330.259 158.124,330.621 157.580,330.978 156.831 C 331.782 155.146,331.503 155.018,330.645 156.677 M325.063 174.040 C 324.409 175.477,324.534 175.783,325.242 174.477 C 325.572 173.867,325.769 173.295,325.680 173.206 C 325.591 173.117,325.313 173.492,325.063 174.040 M91.797 174.368 C 91.797 174.788,92.959 176.953,93.184 176.953 C 93.292 176.953,93.089 176.382,92.734 175.684 C 92.009 174.258,91.797 173.960,91.797 174.368 M323.196 177.832 C 321.851 180.113,321.763 180.308,322.448 179.492 C 323.242 178.547,323.926 177.344,323.670 177.344 C 323.567 177.344,323.354 177.563,323.196 177.832 M96.384 181.836 C 97.047 182.695,98.348 184.102,99.274 184.961 C 100.478 186.079,100.301 185.801,98.652 183.984 C 95.475 180.485,94.979 180.015,96.384 181.836 M317.460 184.925 C 315.999 186.281,313.670 188.054,312.285 188.864 C 309.519 190.481,308.914 191.076,311.241 189.888 C 313.233 188.872,317.039 185.964,318.927 184.015 C 321.197 181.672,320.496 182.107,317.460 184.925 M103.906 188.461 C 103.906 188.568,104.609 189.015,105.469 189.453 C 106.328 189.892,107.031 190.162,107.031 190.055 C 107.031 189.948,106.328 189.501,105.469 189.063 C 104.609 188.624,103.906 188.353,103.906 188.461 M118.652 193.255 C 119.565 193.337,121.060 193.337,121.973 193.255 C 122.886 193.173,122.139 193.105,120.313 193.105 C 118.486 193.105,117.739 193.173,118.652 193.255 M295.225 193.255 C 296.144 193.338,297.550 193.337,298.350 193.253 C 299.150 193.169,298.398 193.101,296.680 193.103 C 294.961 193.104,294.306 193.173,295.225 193.255 M125.038 195.496 C 124.587 196.700,124.228 197.899,124.239 198.159 C 124.250 198.420,124.681 197.496,125.197 196.108 C 125.712 194.719,126.072 193.520,125.996 193.444 C 125.920 193.368,125.489 194.291,125.038 195.496 M178.224 200.195 C 178.228 201.055,178.308 201.360,178.401 200.874 C 178.495 200.388,178.491 199.685,178.393 199.312 C 178.296 198.938,178.219 199.336,178.224 200.195 M202.477 204.850 C 182.668 208.620,169.345 227.649,176.582 241.835 C 177.635 243.899,180.457 246.963,181.083 246.723 C 181.597 246.526,182.761 247.586,182.751 248.242 C 182.741 248.925,187.184 251.091,190.643 252.090 C 198.186 254.267,219.665 254.966,218.483 252.996 C 218.303 252.694,218.416 252.707,218.817 253.031 C 220.405 254.316,232.793 250.266,234.788 247.810 C 235.282 247.201,235.280 247.156,234.766 247.442 C 234.443 247.621,235.052 246.864,236.118 245.759 C 237.184 244.654,238.292 243.750,238.580 243.750 C 241.221 243.750,242.656 231.650,240.735 225.586 C 236.358 211.772,218.100 201.877,202.477 204.850 M294.231 205.859 C 294.231 206.611,294.312 206.919,294.410 206.543 C 294.508 206.167,294.508 205.552,294.410 205.176 C 294.312 204.800,294.231 205.107,294.231 205.859 M122.356 207.813 C 122.356 208.564,122.437 208.872,122.535 208.496 C 122.633 208.120,122.633 207.505,122.535 207.129 C 122.437 206.753,122.356 207.061,122.356 207.813 M294.622 208.594 C 294.622 209.346,294.702 209.653,294.801 209.277 C 294.899 208.901,294.899 208.286,294.801 207.910 C 294.702 207.534,294.622 207.842,294.622 208.594 M121.974 211.523 C 121.978 212.383,122.058 212.688,122.151 212.202 C 122.245 211.717,122.241 211.013,122.143 210.640 C 122.046 210.267,121.969 210.664,121.974 211.523 M295.034 212.695 C 295.037 213.770,295.112 214.163,295.202 213.569 C 295.292 212.975,295.290 212.096,295.197 211.616 C 295.104 211.135,295.031 211.621,295.034 212.695 M121.630 217.773 C 121.631 220.137,121.696 221.053,121.773 219.810 C 121.851 218.567,121.851 216.633,121.772 215.513 C 121.693 214.393,121.630 215.410,121.630 217.773 M195.160 224.150 C 195.050 224.327,195.347 224.459,195.820 224.443 C 196.337 224.426,196.637 224.620,196.572 224.931 C 196.513 225.216,196.647 225.337,196.868 225.199 C 197.422 224.857,198.554 226.058,198.207 226.620 C 198.019 226.923,198.098 226.968,198.444 226.754 C 198.822 226.520,198.892 226.614,198.704 227.105 C 198.562 227.473,198.602 227.679,198.792 227.562 C 199.272 227.265,199.609 228.304,199.609 230.078 C 199.609 231.853,199.272 232.891,198.792 232.595 C 198.602 232.477,198.537 232.617,198.647 232.905 C 198.921 233.617,196.687 235.718,196.065 235.334 C 195.772 235.153,195.682 235.197,195.835 235.445 C 196.187 236.013,194.299 236.425,192.827 236.102 C 191.225 235.750,189.787 234.783,190.103 234.272 C 190.246 234.040,190.168 233.979,189.921 234.132 C 189.260 234.540,188.173 232.615,188.470 231.562 C 188.667 230.863,188.632 230.794,188.313 231.250 C 187.730 232.082,187.746 228.745,188.330 227.611 C 188.999 226.313,190.306 224.998,190.691 225.236 C 190.880 225.353,190.987 225.216,190.928 224.931 C 190.863 224.620,191.163 224.426,191.680 224.443 C 192.153 224.459,192.450 224.327,192.340 224.150 C 192.231 223.973,192.865 223.828,193.750 223.828 C 194.635 223.828,195.269 223.973,195.160 224.150 M225.161 224.064 C 225.500 224.194,225.681 224.456,225.563 224.646 C 225.446 224.836,225.590 224.899,225.883 224.786 C 226.581 224.519,227.899 225.980,227.517 226.598 C 227.316 226.923,227.387 226.973,227.740 226.754 C 228.119 226.520,228.189 226.614,228.001 227.105 C 227.859 227.473,227.899 227.679,228.089 227.562 C 228.278 227.444,228.540 227.625,228.670 227.964 C 229.167 229.258,228.738 232.606,228.125 232.226 C 227.959 232.124,227.847 232.320,227.876 232.662 C 227.959 233.623,225.327 235.547,223.603 235.788 C 222.389 235.958,222.192 235.908,222.656 235.548 C 223.128 235.181,223.030 235.140,222.148 235.332 C 220.050 235.791,217.188 232.695,217.188 229.966 C 217.188 228.294,217.535 227.271,218.005 227.562 C 218.195 227.679,218.235 227.473,218.093 227.105 C 217.920 226.653,217.984 226.526,218.289 226.714 C 218.577 226.892,218.662 226.789,218.524 226.428 C 218.276 225.781,219.842 224.514,220.437 224.881 C 220.650 225.013,220.708 224.933,220.566 224.703 C 220.108 223.962,223.621 223.473,225.161 224.064 M293.240 228.325 C 292.883 229.074,292.671 229.688,292.770 229.688 C 293.037 229.688,294.223 227.296,294.044 227.117 C 293.959 227.032,293.598 227.576,293.240 228.325 M173.145 228.353 C 172.446 228.659,171.875 228.998,171.875 229.108 C 171.875 229.311,174.615 228.249,174.947 227.917 C 175.280 227.585,174.434 227.790,173.145 228.353 M241.302 234.863 C 241.219 235.776,241.152 235.029,241.152 233.203 C 241.152 231.377,241.219 230.630,241.302 231.543 C 241.384 232.456,241.384 233.950,241.302 234.863 M291.001 231.856 C 290.268 232.834,288.697 234.363,287.510 235.253 C 284.677 237.379,284.285 237.771,285.890 236.872 C 287.405 236.024,291.521 232.105,292.169 230.893 C 292.870 229.585,292.433 229.945,291.001 231.856 M125.730 231.959 C 127.401 234.306,133.176 238.682,134.570 238.658 C 134.785 238.654,133.906 238.084,132.617 237.392 C 131.328 236.699,129.060 234.926,127.578 233.450 C 126.095 231.975,125.264 231.304,125.730 231.959 M248.047 231.001 C 248.047 231.109,248.574 231.572,249.219 232.031 C 249.863 232.490,250.391 232.778,250.391 232.670 C 250.391 232.563,249.863 232.100,249.219 231.641 C 248.574 231.182,248.047 230.894,248.047 231.001 M165.820 233.042 L 164.648 234.049 165.918 233.209 C 166.616 232.747,167.188 232.293,167.188 232.200 C 167.188 231.908,167.022 232.009,165.820 233.042 M162.402 234.989 C 160.942 235.781,161.031 236.111,162.500 235.352 C 163.145 235.018,163.672 234.662,163.672 234.560 C 163.672 234.309,163.630 234.323,162.402 234.989 M157.813 237.305 C 157.275 237.612,157.012 237.863,157.227 237.863 C 157.441 237.863,158.057 237.612,158.594 237.305 C 159.131 236.998,159.395 236.746,159.180 236.746 C 158.965 236.746,158.350 236.998,157.813 237.305 M152.930 239.063 C 152.437 239.274,152.365 239.398,152.734 239.398 C 153.057 239.398,153.672 239.247,154.102 239.063 C 154.594 238.851,154.666 238.727,154.297 238.727 C 153.975 238.727,153.359 238.878,152.930 239.063 M142.871 240.520 C 143.784 240.603,145.278 240.603,146.191 240.520 C 147.104 240.438,146.357 240.371,144.531 240.371 C 142.705 240.371,141.958 240.438,142.871 240.520 M271.006 240.521 C 271.925 240.603,273.331 240.602,274.131 240.518 C 274.931 240.434,274.180 240.367,272.461 240.368 C 270.742 240.370,270.088 240.438,271.006 240.521 M236.516 245.710 C 235.681 246.566,235.175 247.266,235.391 247.266 C 235.897 247.266,238.486 244.605,238.229 244.349 C 238.122 244.242,237.352 244.855,236.516 245.710 M204.395 253.401 C 203.911 253.494,203.120 253.494,202.637 253.401 C 202.153 253.308,202.549 253.231,203.516 253.231 C 204.482 253.231,204.878 253.308,204.395 253.401 M214.551 253.401 C 214.067 253.494,213.276 253.494,212.793 253.401 C 212.310 253.308,212.705 253.231,213.672 253.231 C 214.639 253.231,215.034 253.308,214.551 253.401 " stroke="none" fill="#f46f4d" fill-rule="evenodd"></path><path id="path3" d="M110.449 131.798 C 110.573 131.998,109.967 132.056,109.044 131.933 C 107.952 131.786,107.505 131.850,107.678 132.129 C 107.849 132.406,107.524 132.462,106.701 132.297 C 105.921 132.141,105.469 132.207,105.469 132.477 C 105.469 132.712,105.117 132.812,104.688 132.699 C 104.258 132.587,103.906 132.675,103.906 132.895 C 103.906 133.114,103.554 133.202,103.124 133.090 C 102.632 132.961,102.438 133.039,102.600 133.301 C 102.764 133.567,102.554 133.638,102.014 133.497 C 101.551 133.375,101.172 133.454,101.172 133.672 C 101.172 133.890,100.899 133.963,100.566 133.835 C 100.173 133.685,100.057 133.760,100.236 134.050 C 100.424 134.355,100.243 134.428,99.670 134.278 C 99.207 134.157,98.828 134.211,98.828 134.399 C 98.828 134.587,98.536 134.629,98.178 134.492 C 97.703 134.309,97.615 134.383,97.852 134.766 C 98.088 135.148,98.000 135.222,97.525 135.040 C 97.168 134.902,96.875 134.971,96.875 135.192 C 96.875 135.412,96.699 135.484,96.484 135.352 C 96.270 135.219,96.094 135.307,96.094 135.547 C 96.094 135.787,95.918 135.875,95.703 135.742 C 95.488 135.609,95.313 135.666,95.313 135.867 C 95.313 136.257,93.137 137.286,92.807 137.052 C 92.700 136.976,92.367 137.249,92.068 137.657 C 91.724 138.128,91.337 138.285,91.015 138.085 C 90.677 137.877,90.599 137.923,90.783 138.221 C 90.936 138.469,90.876 138.672,90.648 138.672 C 89.885 138.672,89.651 138.786,89.131 139.414 C 88.727 139.902,88.672 139.911,88.881 139.453 C 89.028 139.131,88.733 139.313,88.226 139.858 C 86.907 141.277,84.915 142.885,85.363 142.169 C 85.859 141.379,84.771 142.585,84.067 143.606 C 83.791 144.007,83.686 144.089,83.835 143.787 C 84.012 143.427,83.948 143.336,83.648 143.521 C 83.396 143.677,83.288 143.961,83.406 144.153 C 83.525 144.346,83.306 144.819,82.920 145.205 C 82.534 145.591,82.280 146.234,82.357 146.633 C 82.444 147.083,82.334 147.258,82.069 147.094 C 81.810 146.933,81.641 147.156,81.641 147.656 C 81.641 148.178,81.806 148.382,82.088 148.207 C 82.396 148.017,82.474 148.249,82.340 148.954 C 82.217 149.595,82.294 149.884,82.545 149.729 C 82.788 149.578,82.847 149.736,82.696 150.131 C 82.553 150.502,82.637 150.781,82.890 150.781 C 83.134 150.781,83.219 150.896,83.079 151.036 C 82.939 151.175,83.076 151.483,83.383 151.719 C 83.690 151.955,83.995 152.411,84.061 152.733 C 84.126 153.054,84.390 153.494,84.647 153.710 C 84.903 153.925,85.167 154.351,85.232 154.655 C 85.298 154.959,85.673 155.544,86.065 155.955 C 86.458 156.365,86.683 156.951,86.566 157.257 C 86.449 157.562,86.517 157.813,86.719 157.813 C 86.920 157.813,86.973 158.105,86.835 158.463 C 86.653 158.938,86.727 159.025,87.109 158.789 C 87.492 158.553,87.566 158.641,87.383 159.116 C 87.246 159.473,87.316 159.766,87.539 159.766 C 87.773 159.766,87.833 160.114,87.680 160.596 C 87.487 161.204,87.547 161.345,87.906 161.123 C 88.273 160.896,88.329 161.086,88.127 161.889 C 87.933 162.662,87.987 162.877,88.323 162.670 C 88.658 162.462,88.712 162.677,88.518 163.451 C 88.324 164.225,88.377 164.440,88.713 164.232 C 89.047 164.026,89.104 164.234,88.917 164.981 C 88.755 165.625,88.817 166.016,89.081 166.016 C 89.336 166.016,89.401 166.347,89.242 166.846 C 89.049 167.454,89.110 167.595,89.468 167.373 C 89.836 167.146,89.891 167.336,89.690 168.139 C 89.500 168.894,89.553 169.125,89.870 168.929 C 90.183 168.736,90.234 168.917,90.039 169.531 C 89.836 170.170,89.890 170.330,90.234 170.117 C 90.579 169.904,90.632 170.065,90.430 170.703 C 90.227 171.342,90.280 171.502,90.625 171.289 C 90.970 171.076,91.023 171.236,90.820 171.875 C 90.611 172.534,90.666 172.677,91.040 172.446 C 91.395 172.227,91.467 172.325,91.290 172.787 C 91.152 173.145,91.221 173.438,91.442 173.438 C 91.662 173.438,91.734 173.613,91.602 173.828 C 91.469 174.043,91.525 174.219,91.726 174.219 C 92.116 174.219,93.218 176.557,93.062 177.051 C 93.011 177.212,93.174 177.344,93.424 177.344 C 93.675 177.344,93.766 177.458,93.626 177.598 C 93.486 177.738,93.676 178.103,94.049 178.408 C 94.497 178.776,94.528 178.877,94.141 178.706 C 93.818 178.564,93.994 178.811,94.531 179.254 C 95.068 179.698,95.389 180.065,95.245 180.069 C 95.100 180.074,95.452 180.563,96.026 181.155 C 96.600 181.747,98.116 183.373,99.394 184.768 C 100.672 186.163,101.581 187.041,101.415 186.719 C 101.249 186.396,101.477 186.548,101.923 187.055 C 102.369 187.562,102.740 187.826,102.747 187.641 C 102.754 187.456,102.973 187.586,103.235 187.929 C 103.712 188.556,103.943 188.672,104.711 188.672 C 104.938 188.672,105.017 188.846,104.886 189.058 C 104.751 189.275,104.899 189.347,105.223 189.223 C 105.540 189.102,106.131 189.334,106.537 189.740 C 106.943 190.146,107.509 190.401,107.794 190.306 C 108.100 190.204,108.201 190.312,108.042 190.570 C 107.870 190.848,107.992 190.922,108.378 190.774 C 108.712 190.646,108.984 190.730,108.984 190.962 C 108.984 191.193,109.276 191.270,109.634 191.132 C 110.097 190.955,110.195 191.027,109.976 191.382 C 109.745 191.755,109.888 191.811,110.547 191.602 C 111.185 191.399,111.346 191.452,111.133 191.797 C 110.920 192.141,111.080 192.195,111.719 191.992 C 112.311 191.804,112.512 191.852,112.334 192.140 C 112.153 192.432,112.464 192.488,113.323 192.316 C 114.184 192.144,114.492 192.199,114.310 192.494 C 114.128 192.788,114.506 192.858,115.519 192.718 C 116.350 192.603,116.796 192.655,116.542 192.839 C 116.292 193.019,118.056 193.164,120.509 193.164 C 122.938 193.164,124.844 193.032,124.744 192.871 C 124.645 192.710,124.819 192.578,125.130 192.578 C 125.442 192.578,125.799 192.842,125.923 193.164 C 126.198 193.882,125.817 194.990,125.386 194.724 C 125.214 194.617,125.172 194.909,125.293 195.373 C 125.435 195.913,125.364 196.124,125.098 195.959 C 124.832 195.794,124.761 196.005,124.903 196.545 C 125.044 197.085,124.974 197.295,124.707 197.131 C 124.441 196.966,124.371 197.177,124.512 197.717 C 124.667 198.309,124.593 198.474,124.265 198.271 C 123.923 198.060,123.869 198.270,124.065 199.049 C 124.259 199.823,124.205 200.038,123.869 199.830 C 123.534 199.623,123.480 199.838,123.674 200.611 C 123.856 201.336,123.806 201.595,123.518 201.417 C 123.227 201.237,123.167 201.607,123.326 202.591 C 123.487 203.583,123.427 203.946,123.131 203.763 C 122.835 203.580,122.775 203.943,122.936 204.935 C 123.092 205.899,123.033 206.287,122.754 206.115 C 122.475 205.943,122.411 206.389,122.558 207.482 C 122.716 208.663,122.651 209.027,122.318 208.822 C 121.981 208.613,121.916 209.135,122.070 210.813 C 122.185 212.063,122.144 212.784,121.979 212.416 C 121.815 212.047,121.680 214.272,121.680 217.358 C 121.680 220.565,121.830 222.878,122.030 222.755 C 122.227 222.634,122.263 223.006,122.112 223.607 C 121.917 224.381,121.971 224.596,122.307 224.389 C 122.643 224.181,122.696 224.396,122.502 225.170 C 122.313 225.925,122.365 226.156,122.682 225.960 C 122.996 225.767,123.047 225.948,122.852 226.563 C 122.661 227.161,122.710 227.356,123.005 227.174 C 123.415 226.921,123.502 227.077,123.594 228.223 C 123.615 228.491,123.843 228.887,124.100 229.102 C 124.356 229.316,124.620 229.748,124.686 230.062 C 124.751 230.375,125.977 231.827,127.410 233.288 C 128.843 234.749,129.810 235.827,129.559 235.683 C 129.296 235.533,129.240 235.573,129.427 235.777 C 129.606 235.973,129.914 236.155,130.111 236.182 C 130.308 236.208,130.655 236.252,130.882 236.279 C 131.110 236.306,131.185 236.508,131.049 236.728 C 130.913 236.949,130.946 237.104,131.123 237.073 C 131.911 236.936,132.448 237.141,132.229 237.496 C 132.088 237.725,132.263 237.777,132.661 237.624 C 133.113 237.451,133.240 237.515,133.052 237.820 C 132.863 238.125,132.991 238.188,133.442 238.015 C 133.894 237.842,134.021 237.905,133.833 238.210 C 133.650 238.506,133.763 238.582,134.159 238.430 C 134.493 238.302,134.766 238.387,134.766 238.618 C 134.766 238.849,135.058 238.926,135.416 238.789 C 135.891 238.606,135.979 238.680,135.742 239.063 C 135.506 239.445,135.594 239.519,136.069 239.336 C 136.426 239.199,136.719 239.241,136.719 239.429 C 136.719 239.617,137.070 239.679,137.500 239.566 C 137.930 239.454,138.281 239.554,138.281 239.788 C 138.281 240.059,138.733 240.124,139.514 239.968 C 140.216 239.828,140.652 239.874,140.527 240.076 C 140.402 240.279,142.028 240.430,144.335 240.430 C 146.582 240.430,148.267 240.276,148.148 240.083 C 148.027 239.887,148.554 239.852,149.358 240.003 C 150.332 240.185,150.781 240.126,150.781 239.816 C 150.781 239.554,151.112 239.449,151.563 239.566 C 151.992 239.679,152.344 239.591,152.344 239.371 C 152.344 239.151,152.696 239.063,153.126 239.176 C 153.618 239.305,153.812 239.226,153.650 238.965 C 153.486 238.698,153.696 238.628,154.236 238.769 C 154.699 238.890,155.078 238.811,155.078 238.594 C 155.078 238.376,155.351 238.302,155.684 238.430 C 156.080 238.582,156.194 238.506,156.011 238.210 C 155.824 237.908,155.947 237.841,156.381 238.007 C 156.739 238.145,157.031 238.068,157.031 237.837 C 157.031 237.605,157.304 237.521,157.637 237.649 C 157.971 237.777,158.148 237.726,158.030 237.536 C 157.773 237.120,158.908 236.626,159.410 236.936 C 159.606 237.057,159.766 236.959,159.766 236.719 C 159.766 236.479,159.941 236.391,160.156 236.523 C 160.371 236.656,160.547 236.568,160.547 236.328 C 160.547 236.088,160.723 236.000,160.938 236.133 C 161.152 236.266,161.328 236.193,161.328 235.971 C 161.328 235.464,163.486 234.320,163.818 234.651 C 163.952 234.786,164.063 234.680,164.063 234.417 C 164.063 234.154,164.238 234.047,164.453 234.180 C 164.668 234.312,164.844 234.247,164.844 234.034 C 164.844 233.821,165.403 233.249,166.086 232.762 C 166.769 232.276,167.177 232.132,166.992 232.443 C 166.807 232.754,167.210 232.423,167.888 231.709 C 168.565 230.994,169.281 230.510,169.480 230.632 C 169.678 230.755,169.945 230.581,170.073 230.246 C 170.202 229.912,170.484 229.747,170.700 229.881 C 170.917 230.015,171.094 229.928,171.094 229.688 C 171.094 229.447,171.251 229.348,171.443 229.467 C 171.636 229.586,171.902 229.400,172.034 229.055 C 172.187 228.657,172.560 228.501,173.052 228.630 C 173.480 228.742,173.742 228.692,173.636 228.520 C 173.401 228.141,174.547 227.650,175.006 227.933 C 175.185 228.044,175.623 227.122,175.978 225.884 C 178.449 217.275,188.800 208.383,199.805 205.415 C 216.186 200.997,236.347 210.985,240.721 225.685 C 241.426 228.055,241.678 228.482,242.266 228.295 C 242.659 228.171,242.969 228.267,242.969 228.512 C 242.969 228.754,243.129 228.854,243.324 228.733 C 243.872 228.394,244.950 228.936,244.660 229.404 C 244.499 229.665,244.645 229.727,245.053 229.571 C 245.411 229.434,245.703 229.502,245.703 229.723 C 245.703 229.944,245.878 230.016,246.092 229.884 C 246.306 229.752,246.950 230.137,247.523 230.740 C 248.096 231.343,248.417 231.582,248.236 231.271 C 248.054 230.959,248.463 231.103,249.148 231.590 C 249.832 232.077,250.391 232.649,250.391 232.862 C 250.391 233.075,250.566 233.141,250.780 233.009 C 250.993 232.877,251.637 233.262,252.211 233.865 C 252.784 234.468,253.115 234.724,252.946 234.434 C 252.699 234.007,252.798 233.991,253.468 234.350 C 253.924 234.594,254.297 234.973,254.297 235.193 C 254.297 235.413,254.473 235.484,254.688 235.352 C 254.902 235.219,255.078 235.307,255.078 235.547 C 255.078 235.787,255.254 235.875,255.469 235.742 C 255.684 235.609,255.859 235.687,255.859 235.914 C 255.859 236.142,255.991 236.293,256.152 236.251 C 256.702 236.106,258.203 236.770,258.203 237.159 C 258.203 237.372,258.379 237.437,258.594 237.305 C 258.809 237.172,258.984 237.244,258.984 237.465 C 258.984 237.685,259.277 237.754,259.634 237.617 C 260.068 237.450,260.192 237.518,260.005 237.820 C 259.822 238.115,259.935 238.192,260.331 238.040 C 260.665 237.912,260.938 237.996,260.938 238.227 C 260.938 238.458,261.201 238.546,261.523 238.423 C 261.846 238.299,262.109 238.387,262.109 238.618 C 262.109 238.849,262.373 238.937,262.695 238.813 C 263.018 238.689,263.281 238.766,263.281 238.984 C 263.281 239.202,263.660 239.281,264.124 239.160 C 264.715 239.005,264.880 239.079,264.677 239.407 C 264.466 239.749,264.676 239.803,265.455 239.607 C 266.203 239.419,266.441 239.472,266.250 239.781 C 266.059 240.090,266.334 240.151,267.168 239.984 C 267.823 239.853,268.359 239.900,268.360 240.088 C 268.360 240.276,270.277 240.430,272.619 240.430 C 275.065 240.430,276.786 240.279,276.660 240.076 C 276.535 239.874,276.978 239.829,277.693 239.972 C 278.582 240.150,278.865 240.093,278.669 239.776 C 278.482 239.474,278.664 239.401,279.236 239.550 C 279.699 239.671,280.078 239.592,280.078 239.375 C 280.078 239.157,280.342 239.080,280.664 239.204 C 280.986 239.327,281.250 239.240,281.250 239.008 C 281.250 238.777,281.514 238.689,281.836 238.813 C 282.158 238.937,282.422 238.857,282.422 238.637 C 282.422 238.416,282.598 238.344,282.813 238.477 C 283.027 238.609,283.203 238.521,283.203 238.281 C 283.203 238.041,283.379 237.953,283.594 238.086 C 283.809 238.219,283.984 238.112,283.984 237.849 C 283.984 237.585,284.087 237.472,284.212 237.598 C 284.338 237.723,284.783 237.482,285.203 237.063 C 285.623 236.643,286.163 236.421,286.403 236.570 C 286.668 236.734,286.730 236.663,286.561 236.388 C 286.317 235.994,286.753 235.772,287.560 235.879 C 287.701 235.897,288.052 235.611,288.341 235.241 C 288.797 234.660,288.786 234.623,288.263 234.961 C 287.930 235.176,288.100 234.963,288.640 234.489 C 289.179 234.014,289.950 233.223,290.352 232.731 C 290.754 232.239,290.953 232.083,290.794 232.385 C 290.601 232.750,290.657 232.839,290.962 232.651 C 291.213 232.495,291.332 232.226,291.225 232.053 C 291.118 231.880,291.462 231.273,291.989 230.704 C 292.517 230.135,292.935 229.578,292.918 229.466 C 292.848 228.999,293.872 226.953,294.176 226.953 C 294.358 226.953,294.406 226.689,294.282 226.367 C 294.158 226.045,294.227 225.781,294.435 225.781 C 294.643 225.781,294.725 225.316,294.616 224.747 C 294.485 224.063,294.562 223.801,294.842 223.974 C 295.132 224.154,295.193 223.783,295.033 222.800 C 294.865 221.766,294.927 221.441,295.252 221.642 C 295.583 221.847,295.702 220.795,295.697 217.699 C 295.693 214.602,295.580 213.633,295.275 214.063 C 294.970 214.490,294.916 213.933,295.072 211.997 C 295.226 210.089,295.163 209.421,294.847 209.617 C 294.533 209.811,294.480 209.343,294.662 207.971 C 294.850 206.557,294.807 206.208,294.497 206.641 C 294.182 207.082,294.125 206.816,294.268 205.566 C 294.394 204.454,294.320 203.991,294.042 204.162 C 293.766 204.333,293.710 204.009,293.875 203.186 C 294.030 202.409,293.964 201.953,293.698 201.953 C 293.442 201.953,293.371 201.568,293.520 200.977 C 293.673 200.364,293.599 200.000,293.321 200.000 C 293.070 200.000,292.966 199.661,293.082 199.219 C 293.194 198.789,293.115 198.438,292.906 198.438 C 292.696 198.438,292.643 198.066,292.789 197.607 C 292.966 197.049,292.911 196.865,292.620 197.044 C 292.222 197.291,292.034 196.719,292.083 195.410 C 292.093 195.142,291.926 194.922,291.712 194.922 C 291.498 194.922,291.427 194.649,291.555 194.316 C 291.689 193.968,291.623 193.811,291.402 193.948 C 291.189 194.079,291.016 193.931,291.016 193.620 C 291.016 193.308,291.294 192.946,291.634 192.815 C 292.451 192.502,292.662 192.516,292.443 192.871 C 292.344 193.032,294.338 193.164,296.875 193.164 C 299.434 193.164,301.287 193.019,301.037 192.839 C 300.782 192.655,301.223 192.602,302.051 192.717 C 302.939 192.840,303.516 192.759,303.516 192.511 C 303.516 192.267,303.922 192.205,304.525 192.356 C 305.233 192.534,305.452 192.476,305.257 192.161 C 305.064 191.848,305.245 191.797,305.859 191.992 C 306.498 192.195,306.658 192.141,306.445 191.797 C 306.232 191.452,306.393 191.399,307.031 191.602 C 307.690 191.811,307.833 191.755,307.602 191.382 C 307.383 191.027,307.482 190.955,307.944 191.132 C 308.302 191.270,308.594 191.193,308.594 190.962 C 308.594 190.730,308.843 190.637,309.147 190.754 C 309.452 190.871,309.805 190.695,309.932 190.364 C 310.066 190.015,310.416 189.860,310.766 189.994 C 311.097 190.121,311.269 190.064,311.147 189.867 C 310.928 189.513,312.397 188.827,313.017 188.995 C 313.194 189.043,313.228 188.902,313.092 188.682 C 312.866 188.315,313.391 188.106,314.189 188.245 C 314.366 188.275,314.400 188.120,314.264 187.900 C 314.128 187.680,314.203 187.478,314.430 187.451 C 314.658 187.424,315.011 187.380,315.215 187.354 C 315.419 187.327,315.814 187.049,316.094 186.738 C 316.520 186.261,316.505 186.230,315.997 186.542 C 315.665 186.747,315.727 186.608,316.135 186.233 C 320.426 182.295,321.208 181.535,320.703 181.794 C 320.381 181.959,320.557 181.674,321.094 181.159 C 321.631 180.645,322.118 180.003,322.177 179.733 C 322.351 178.936,323.496 177.344,323.896 177.344 C 324.099 177.344,324.156 177.168,324.023 176.953 C 323.891 176.738,323.979 176.563,324.219 176.563 C 324.459 176.563,324.547 176.387,324.414 176.172 C 324.281 175.957,324.369 175.781,324.609 175.781 C 324.850 175.781,324.947 175.621,324.826 175.426 C 324.516 174.924,325.011 173.789,325.427 174.046 C 325.617 174.163,325.668 173.987,325.540 173.653 C 325.412 173.320,325.496 173.047,325.727 173.047 C 325.959 173.047,326.035 172.755,325.898 172.397 C 325.740 171.986,325.803 171.842,326.069 172.007 C 326.341 172.175,326.412 171.969,326.269 171.424 C 326.109 170.810,326.183 170.664,326.543 170.886 C 326.907 171.111,326.967 170.973,326.773 170.361 C 326.628 169.903,326.680 169.531,326.890 169.531 C 327.099 169.531,327.171 169.152,327.050 168.689 C 326.896 168.097,326.969 167.933,327.298 168.136 C 327.639 168.347,327.693 168.136,327.498 167.357 C 327.296 166.555,327.352 166.365,327.719 166.592 C 328.078 166.814,328.138 166.673,327.945 166.065 C 327.787 165.566,327.851 165.234,328.106 165.234 C 328.370 165.234,328.432 164.843,328.271 164.200 C 328.083 163.453,328.140 163.245,328.474 163.451 C 328.807 163.657,328.866 163.453,328.684 162.728 C 328.529 162.111,328.594 161.719,328.852 161.719 C 329.083 161.719,329.171 161.455,329.048 161.133 C 328.924 160.811,329.012 160.547,329.243 160.547 C 329.474 160.547,329.562 160.283,329.438 159.961 C 329.314 159.639,329.418 159.375,329.669 159.375 C 329.919 159.375,330.016 159.199,329.883 158.984 C 329.750 158.770,329.838 158.594,330.078 158.594 C 330.318 158.594,330.409 158.423,330.281 158.215 C 329.984 157.735,331.134 155.469,331.674 155.469 C 331.896 155.469,331.973 155.299,331.845 155.092 C 331.717 154.885,331.970 154.358,332.408 153.920 C 332.845 153.483,333.203 153.037,333.203 152.930 C 333.203 152.822,333.203 152.548,333.203 152.321 C 333.203 152.093,333.377 152.014,333.589 152.146 C 333.819 152.287,333.871 152.112,333.718 151.714 C 333.545 151.262,333.609 151.135,333.914 151.323 C 334.218 151.512,334.282 151.384,334.109 150.933 C 333.935 150.481,333.999 150.354,334.304 150.542 C 334.600 150.725,334.676 150.612,334.524 150.216 C 334.396 149.882,334.442 149.609,334.626 149.609 C 334.810 149.609,334.961 148.835,334.961 147.889 C 334.961 146.941,334.800 146.268,334.602 146.390 C 334.403 146.513,334.357 146.313,334.499 145.942 C 334.652 145.544,334.600 145.369,334.371 145.511 C 334.158 145.642,333.962 145.563,333.936 145.336 C 333.909 145.108,333.865 144.761,333.838 144.564 C 333.811 144.367,333.629 144.059,333.433 143.880 C 333.221 143.686,333.213 143.791,333.413 144.141 C 333.598 144.463,333.187 144.200,332.499 143.556 C 331.150 142.292,330.825 141.759,331.934 142.628 C 332.552 143.113,332.567 143.099,332.085 142.485 C 331.792 142.111,331.406 141.896,331.228 142.006 C 331.050 142.116,330.242 141.544,329.433 140.735 C 328.624 139.926,328.113 139.508,328.297 139.806 C 328.523 140.172,328.241 140.116,327.423 139.633 C 326.758 139.240,326.320 138.748,326.449 138.540 C 326.588 138.315,326.476 138.289,326.173 138.476 C 325.850 138.675,325.463 138.518,325.119 138.048 C 324.820 137.639,324.488 137.367,324.380 137.443 C 324.012 137.704,321.885 136.628,322.096 136.287 C 322.211 136.100,322.033 136.051,321.700 136.179 C 321.366 136.307,321.094 136.207,321.094 135.956 C 321.094 135.706,320.918 135.609,320.703 135.742 C 320.488 135.875,320.313 135.787,320.313 135.547 C 320.313 135.307,320.137 135.219,319.922 135.352 C 319.707 135.484,319.531 135.412,319.531 135.192 C 319.531 134.971,319.239 134.902,318.881 135.040 C 318.419 135.217,318.320 135.145,318.540 134.790 C 318.771 134.416,318.627 134.361,317.969 134.570 C 317.375 134.759,317.175 134.711,317.354 134.421 C 317.520 134.153,317.392 134.080,317.012 134.226 C 316.679 134.354,316.406 134.270,316.406 134.038 C 316.406 133.807,316.143 133.719,315.820 133.843 C 315.498 133.967,315.234 133.890,315.234 133.672 C 315.234 133.454,314.855 133.375,314.392 133.497 C 313.852 133.638,313.642 133.567,313.807 133.301 C 313.971 133.035,313.761 132.965,313.221 133.106 C 312.629 133.261,312.464 133.187,312.667 132.858 C 312.876 132.520,312.677 132.461,311.947 132.644 C 311.381 132.786,310.938 132.731,310.938 132.518 C 310.938 132.310,310.498 132.224,309.961 132.326 C 309.372 132.439,308.984 132.333,308.984 132.059 C 308.984 131.749,308.535 131.690,307.561 131.872 C 306.757 132.023,306.230 131.988,306.352 131.792 C 306.472 131.598,304.624 131.445,302.149 131.445 C 299.707 131.445,297.933 131.590,298.182 131.769 C 298.435 131.951,297.902 132.010,296.973 131.904 C 295.987 131.792,295.313 131.876,295.313 132.111 C 295.313 132.341,294.891 132.401,294.303 132.253 C 293.578 132.071,293.375 132.130,293.580 132.463 C 293.788 132.799,293.573 132.853,292.799 132.659 C 292.043 132.469,291.812 132.521,292.008 132.839 C 292.202 133.152,292.021 133.203,291.406 133.008 C 290.748 132.799,290.604 132.854,290.835 133.228 C 291.055 133.582,290.956 133.654,290.494 133.477 C 290.136 133.340,289.844 133.416,289.844 133.648 C 289.844 133.879,289.571 133.963,289.238 133.835 C 288.841 133.683,288.728 133.760,288.911 134.055 C 289.099 134.360,288.972 134.424,288.520 134.251 C 288.069 134.077,287.941 134.141,288.130 134.446 C 288.318 134.751,288.191 134.815,287.739 134.641 C 287.341 134.488,287.166 134.541,287.307 134.770 C 287.521 135.115,287.001 135.310,286.540 135.059 C 286.442 135.005,286.077 135.313,285.730 135.742 C 285.383 136.172,285.236 136.261,285.404 135.941 C 285.572 135.620,285.048 136.020,284.239 136.829 C 283.430 137.638,282.631 138.215,282.463 138.111 C 282.153 137.920,279.267 140.659,279.404 141.016 C 279.566 141.442,278.230 142.945,277.930 142.673 C 277.753 142.514,277.720 142.577,277.855 142.814 C 277.990 143.050,277.829 143.578,277.498 143.985 C 277.166 144.393,277.023 144.480,277.180 144.178 C 277.369 143.814,277.310 143.725,277.007 143.912 C 276.756 144.067,276.651 144.358,276.774 144.558 C 277.065 145.029,275.993 146.566,275.628 146.201 C 275.475 146.048,275.465 146.225,275.607 146.594 C 275.777 147.038,275.674 147.266,275.301 147.266 C 274.823 147.266,274.845 147.697,275.447 150.098 C 276.345 153.677,278.050 163.979,278.204 166.749 C 278.398 170.252,278.121 170.232,269.654 166.132 C 242.261 152.867,219.862 148.675,192.974 151.780 C 176.936 153.633,156.508 160.210,144.234 167.472 C 140.250 169.829,139.453 169.885,139.453 167.806 C 139.453 165.805,140.893 158.612,142.246 153.854 C 143.371 149.897,143.397 149.644,142.797 148.483 C 142.451 147.814,142.260 147.266,142.373 147.266 C 142.486 147.266,142.220 146.908,141.783 146.470 C 141.345 146.033,141.092 145.505,141.220 145.298 C 141.348 145.091,141.296 144.922,141.104 144.922 C 140.912 144.922,140.162 144.175,139.436 143.262 C 138.711 142.349,138.462 141.852,138.883 142.159 C 139.304 142.465,138.682 141.855,137.500 140.804 C 136.318 139.752,134.746 138.271,134.006 137.512 C 133.266 136.754,132.816 136.396,133.007 136.719 C 133.454 137.476,132.219 136.592,131.118 135.368 C 130.724 134.929,130.515 134.791,130.655 135.062 C 130.856 135.449,130.701 135.458,129.920 135.102 C 129.376 134.854,129.022 134.503,129.134 134.322 C 129.246 134.141,129.036 134.109,128.667 134.251 C 128.215 134.424,128.088 134.360,128.277 134.055 C 128.459 133.760,128.346 133.683,127.950 133.835 C 127.617 133.963,127.344 133.879,127.344 133.648 C 127.344 133.416,127.052 133.340,126.694 133.477 C 126.232 133.654,126.133 133.582,126.352 133.228 C 126.583 132.854,126.440 132.799,125.781 133.008 C 125.167 133.203,124.986 133.152,125.179 132.839 C 125.375 132.521,125.144 132.469,124.389 132.659 C 123.615 132.853,123.400 132.799,123.607 132.463 C 123.815 132.127,123.600 132.074,122.826 132.268 C 122.101 132.450,121.843 132.400,122.021 132.111 C 122.200 131.822,121.845 131.758,120.907 131.910 C 120.150 132.033,119.531 131.979,119.531 131.789 C 119.531 131.600,117.439 131.445,114.881 131.445 C 112.217 131.445,110.324 131.596,110.449 131.798 M282.422 138.400 C 282.422 138.465,281.763 139.124,280.957 139.865 L 279.492 141.211 280.838 139.746 C 282.091 138.383,282.422 138.102,282.422 138.400 M171.292 190.281 C 172.474 190.351,173.535 190.668,173.985 191.084 C 174.393 191.461,174.857 191.690,175.015 191.592 C 175.173 191.495,175.542 191.721,175.835 192.094 C 176.323 192.717,176.303 192.729,175.586 192.236 C 175.156 191.941,175.277 192.143,175.854 192.685 C 176.431 193.226,176.797 193.776,176.668 193.905 C 176.538 194.035,176.637 194.141,176.888 194.141 C 177.139 194.141,177.344 194.492,177.344 194.922 C 177.344 195.352,177.514 195.703,177.722 195.703 C 177.930 195.703,177.999 195.967,177.876 196.289 C 177.752 196.611,177.803 196.875,177.988 196.875 C 178.472 196.875,178.365 202.742,177.859 203.906 C 177.626 204.443,177.513 205.015,177.608 205.176 C 177.703 205.337,177.594 205.469,177.367 205.469 C 177.139 205.469,176.953 205.732,176.953 206.055 C 176.953 206.377,176.777 206.641,176.563 206.641 C 176.348 206.641,176.172 206.865,176.172 207.140 C 176.172 207.737,174.769 209.014,174.456 208.701 C 174.336 208.581,174.127 208.770,173.992 209.122 C 173.857 209.473,173.589 209.664,173.397 209.545 C 173.204 209.426,173.047 209.525,173.047 209.766 C 173.047 210.006,172.860 210.087,172.633 209.946 C 172.405 209.806,171.736 209.890,171.146 210.135 C 170.296 210.487,169.840 210.458,168.951 209.997 C 168.334 209.677,167.703 209.493,167.549 209.588 C 167.395 209.683,167.164 209.487,167.036 209.153 C 166.907 208.818,166.651 208.638,166.466 208.752 C 166.281 208.867,165.721 208.526,165.223 207.996 C 164.725 207.465,164.479 207.026,164.678 207.019 C 164.877 207.013,164.728 206.826,164.347 206.605 C 163.967 206.383,163.757 206.037,163.882 205.835 C 164.007 205.634,163.893 205.469,163.630 205.469 C 163.366 205.469,163.244 205.375,163.358 205.261 C 163.472 205.147,163.251 203.881,162.866 202.448 C 162.445 200.878,162.296 199.599,162.493 199.231 C 162.673 198.895,162.904 198.008,163.006 197.259 C 163.263 195.375,163.699 194.141,164.108 194.141 C 164.298 194.141,164.414 194.009,164.366 193.848 C 164.318 193.687,164.890 192.944,165.636 192.198 C 166.382 191.452,167.124 190.881,167.285 190.929 C 167.446 190.977,167.578 190.829,167.578 190.602 C 167.578 190.374,167.742 190.289,167.942 190.413 C 168.142 190.537,168.418 190.456,168.555 190.234 C 168.692 190.013,168.925 189.906,169.073 189.997 C 169.221 190.089,170.220 190.216,171.292 190.281 M248.815 190.661 C 249.129 190.749,249.714 191.172,250.114 191.602 C 250.514 192.031,250.706 192.119,250.541 191.797 C 250.283 191.294,250.333 191.286,250.897 191.743 C 251.258 192.036,251.457 192.433,251.338 192.625 C 251.219 192.817,251.397 193.080,251.733 193.209 C 252.069 193.338,252.344 193.688,252.344 193.987 C 252.344 194.286,252.530 194.531,252.757 194.531 C 252.985 194.531,253.070 194.695,252.946 194.895 C 252.823 195.095,252.903 195.371,253.125 195.508 C 253.347 195.645,253.427 195.921,253.304 196.121 C 253.180 196.321,253.284 196.484,253.534 196.484 C 253.785 196.484,253.894 196.735,253.776 197.041 C 253.659 197.347,253.735 198.224,253.946 198.989 C 254.230 200.016,254.181 200.882,253.759 202.304 C 253.445 203.363,253.265 204.307,253.361 204.403 C 253.456 204.498,253.277 204.790,252.962 205.051 C 252.648 205.312,252.474 205.743,252.575 206.008 C 252.782 206.547,249.830 209.465,249.456 209.091 C 249.326 208.961,249.219 209.070,249.219 209.333 C 249.219 209.596,249.043 209.703,248.828 209.570 C 248.613 209.438,248.438 209.525,248.438 209.766 C 248.438 210.006,248.296 210.115,248.123 210.008 C 247.950 209.901,247.159 209.960,246.365 210.139 C 245.445 210.347,244.922 210.323,244.922 210.073 C 244.922 209.858,244.658 209.783,244.336 209.907 C 244.014 210.031,243.750 209.951,243.750 209.730 C 243.750 209.510,243.574 209.438,243.359 209.570 C 243.145 209.703,242.969 209.615,242.969 209.375 C 242.969 209.135,242.811 209.036,242.619 209.154 C 242.427 209.273,242.164 209.097,242.036 208.762 C 241.905 208.422,241.602 208.277,241.349 208.434 C 241.073 208.604,241.000 208.544,241.163 208.281 C 241.312 208.040,240.992 207.559,240.445 207.201 C 239.903 206.846,239.557 206.399,239.675 206.207 C 239.793 206.016,239.693 205.859,239.453 205.859 C 239.213 205.859,239.125 205.684,239.258 205.469 C 239.391 205.254,239.303 205.078,239.063 205.078 C 238.822 205.078,238.734 204.902,238.867 204.688 C 239.000 204.473,238.946 204.297,238.747 204.297 C 238.548 204.297,238.371 202.363,238.353 200.000 C 238.334 197.353,238.473 195.703,238.715 195.703 C 238.931 195.703,239.000 195.527,238.867 195.313 C 238.734 195.098,238.822 194.922,239.063 194.922 C 239.303 194.922,239.391 194.746,239.258 194.531 C 239.125 194.316,239.203 194.141,239.430 194.141 C 239.658 194.141,239.806 194.009,239.760 193.848 C 239.645 193.447,242.500 190.677,242.760 190.937 C 242.875 191.052,242.969 190.930,242.969 190.667 C 242.969 190.404,243.132 190.289,243.332 190.413 C 243.532 190.537,243.786 190.493,243.895 190.315 C 244.074 190.026,247.361 190.257,248.815 190.661 M191.797 224.103 C 189.859 224.808,187.891 227.717,187.891 229.876 C 187.891 236.166,195.190 238.410,198.730 233.207 C 201.784 228.721,196.863 222.260,191.797 224.103 M220.002 224.665 C 215.896 227.295,217.061 235.547,221.539 235.547 C 221.824 235.547,221.446 235.221,220.697 234.823 C 215.542 232.080,217.277 224.414,223.053 224.414 C 229.779 224.414,230.369 233.899,223.743 235.513 L 222.070 235.920 223.571 235.752 C 225.442 235.543,227.645 233.904,228.362 232.188 C 230.593 226.849,224.772 221.611,220.002 224.665 M196.079 224.797 C 202.389 228.060,198.070 238.287,191.686 235.197 C 188.619 233.712,187.366 229.826,189.060 227.047 C 190.600 224.522,193.654 223.543,196.079 224.797 M241.152 233.203 C 241.152 235.029,241.219 235.776,241.302 234.863 C 241.384 233.950,241.384 232.456,241.302 231.543 C 241.219 230.630,241.152 231.377,241.152 233.203 M241.914 233.203 C 241.914 234.385,241.987 234.868,242.077 234.277 C 242.166 233.687,242.166 232.720,242.077 232.129 C 241.987 231.538,241.914 232.021,241.914 233.203 M236.114 245.722 C 235.088 246.764,234.474 247.671,234.701 247.812 C 234.922 247.948,235.213 247.881,235.348 247.663 C 235.483 247.444,235.459 247.266,235.295 247.266 C 235.132 247.266,235.677 246.570,236.508 245.719 C 237.338 244.869,238.153 244.256,238.318 244.358 C 238.483 244.461,238.710 244.395,238.823 244.212 C 239.485 243.140,237.649 244.164,236.114 245.722 M178.766 244.833 C 178.644 245.031,179.035 245.664,179.636 246.240 C 180.409 246.980,180.729 247.114,180.729 246.697 C 180.729 245.941,179.060 244.356,178.766 244.833 M202.637 253.401 C 203.120 253.494,203.911 253.494,204.395 253.401 C 204.878 253.308,204.482 253.231,203.516 253.231 C 202.549 253.231,202.153 253.308,202.637 253.401 M212.793 253.401 C 213.276 253.494,214.067 253.494,214.551 253.401 C 215.034 253.308,214.639 253.231,213.672 253.231 C 212.705 253.231,212.310 253.308,212.793 253.401 M211.426 254.176 C 211.802 254.274,212.417 254.274,212.793 254.176 C 213.169 254.077,212.861 253.997,212.109 253.997 C 211.357 253.997,211.050 254.077,211.426 254.176 M215.141 386.214 C 215.627 386.307,216.330 386.304,216.704 386.206 C 217.077 386.108,216.680 386.032,215.820 386.036 C 214.961 386.040,214.655 386.120,215.141 386.214 M188.574 430.364 C 189.487 430.446,190.981 430.446,191.895 430.364 C 192.808 430.282,192.061 430.215,190.234 430.215 C 188.408 430.215,187.661 430.282,188.574 430.364 M194.829 430.354 C 195.315 430.448,196.018 430.444,196.391 430.347 C 196.765 430.249,196.367 430.172,195.508 430.177 C 194.648 430.181,194.343 430.261,194.829 430.354 " stroke="none" fill="#fba093" fill-rule="evenodd"></path><path id="path4" d="M238.672 355.144 C 237.920 355.609,232.646 358.701,226.953 362.016 C 214.745 369.124,215.549 368.495,217.434 369.460 C 218.265 369.885,220.946 371.580,223.392 373.226 C 255.377 394.760,260.985 416.392,240.652 439.810 C 234.512 446.882,227.189 452.361,205.273 466.279 C 185.468 478.857,179.299 484.644,179.297 490.645 C 179.296 494.480,181.639 493.858,189.637 487.899 C 194.887 483.987,200.291 480.526,206.250 477.258 C 209.150 475.667,213.984 472.955,216.992 471.231 C 220.000 469.508,225.361 466.457,228.906 464.453 C 258.805 447.546,272.195 431.511,274.215 410.195 C 275.751 393.977,267.940 377.890,251.364 363.134 C 248.306 360.411,240.554 354.294,240.168 354.298 C 240.097 354.299,239.424 354.680,238.672 355.144 " stroke="none" fill="#f97e2f" fill-rule="evenodd"></path></g></svg>